<svg width="32" height="32" viewBox="0 0 32 32" fill="none" xmlns="http://www.w3.org/2000/svg">
<rect width="32" height="32" rx="16" fill="url(#paint0_linear_3771_18121)"/>
<path d="M12.2307 10.1534C12.3421 9.77901 12.8724 9.77901 12.9838 10.1534L13.4012 11.5555C13.8554 13.0815 15.0491 14.2752 16.5751 14.7294L17.9772 15.1468C18.3516 15.2582 18.3516 15.7885 17.9772 15.9L16.5751 16.3173C15.0491 16.7716 13.8554 17.9653 13.4012 19.4912L12.9838 20.8933C12.8724 21.2678 12.3421 21.2678 12.2307 20.8933L11.8133 19.4912C11.359 17.9653 10.1654 16.7716 8.63941 16.3173L7.23729 15.9C6.86286 15.7885 6.86286 15.2582 7.23729 15.1468L8.63938 14.7294C10.1654 14.2752 11.3591 13.0815 11.8133 11.5555L12.2307 10.1534Z" fill="white"/>
<path d="M21.1934 18.1382C21.3048 17.7638 21.8351 17.7638 21.9466 18.1382L22.0667 18.5419C22.3509 19.4967 23.0978 20.2436 24.0526 20.5278L24.4563 20.648C24.8308 20.7594 24.8308 21.2897 24.4563 21.4011L24.0526 21.5213C23.0978 21.8055 22.3509 22.5524 22.0667 23.5072L21.9466 23.9109C21.8351 24.2854 21.3048 24.2854 21.1934 23.9109L21.0732 23.5072C20.789 22.5524 20.0421 21.8055 19.0873 21.5213L18.6836 21.4011C18.3092 21.2897 18.3092 20.7594 18.6836 20.648L19.0873 20.5278C20.0421 20.2436 20.789 19.4967 21.0732 18.5419L21.1934 18.1382Z" fill="white"/>
<path d="M20.5897 6.78852C20.6342 6.63875 20.8464 6.63875 20.8909 6.78853L21.1381 7.61898C21.3658 8.38364 21.9639 8.98179 22.7286 9.2094L23.559 9.4566C23.7088 9.50118 23.7088 9.71329 23.559 9.75788L22.7285 10.0051C21.9639 10.2327 21.3658 10.8308 21.1381 11.5955L20.8909 12.426C20.8464 12.5757 20.6342 12.5757 20.5897 12.426L20.3425 11.5955C20.1148 10.8308 19.5167 10.2327 18.7521 10.0051L17.9216 9.75788C17.7718 9.71329 17.7718 9.50118 17.9216 9.4566L18.752 9.2094C19.5167 8.98179 20.1148 8.38365 20.3425 7.61899L20.5897 6.78852Z" fill="white"/>
<defs>
<linearGradient id="paint0_linear_3771_18121" x1="0" y1="16" x2="32" y2="16" gradientUnits="userSpaceOnUse">
<stop offset="0.25" stop-color="#EF0044"/>
<stop offset="0.9" stop-color="#7692E1"/>
</linearGradient>
</defs>
</svg>
