<svg width="24" height="24" viewBox="0 0 24 24" fill="none" xmlns="http://www.w3.org/2000/svg">
<path d="M7.07659 4.58384C7.21033 4.13452 7.84666 4.13452 7.98041 4.58384L8.48123 6.26632C9.02631 8.09751 10.4587 9.52993 12.2899 10.075L13.9724 10.5758C14.4217 10.7096 14.4217 11.3459 13.9724 11.4797L12.2899 11.9805C10.4587 12.5256 9.02632 13.958 8.48123 15.7892L7.98041 17.4717C7.84666 17.921 7.21033 17.921 7.07659 17.4717L6.57575 15.7892C6.03066 13.958 4.59826 12.5256 2.7671 11.9805L1.08455 11.4797C0.635238 11.3459 0.635241 10.7096 1.08456 10.5758L2.76706 10.075C4.59825 9.52993 6.03066 8.09752 6.57575 6.26634L7.07659 4.58384Z" fill="url(#paint0_linear_3758_21580)"/>
<path d="M18.232 14.5653C18.3658 14.116 19.0021 14.116 19.1359 14.5653L19.2801 15.0497C19.6211 16.1955 20.5174 17.0917 21.6631 17.4328L22.1476 17.577C22.5969 17.7108 22.5969 18.3471 22.1476 18.4808L21.6631 18.6251C20.5174 18.9661 19.6211 19.8624 19.2801 21.0081L19.1359 21.4926C19.0021 21.9419 18.3658 21.9419 18.232 21.4926L18.0878 21.0081C17.7468 19.8624 16.8505 18.9661 15.7048 18.6251L15.2203 18.4808C14.771 18.3471 14.771 17.7108 15.2203 17.577L15.7048 17.4328C16.8505 17.0917 17.7468 16.1955 18.0878 15.0497L18.232 14.5653Z" fill="url(#paint1_linear_3758_21580)"/>
<path d="M16.7079 0.146083C16.7614 -0.0336434 17.0159 -0.0336426 17.0694 0.146084L17.3661 1.14263C17.6392 2.06022 18.357 2.778 19.2746 3.05113L20.2711 3.34778C20.4508 3.40127 20.4508 3.6558 20.2711 3.7093L19.2745 4.00596C18.357 4.2791 17.6392 4.99687 17.3661 5.91446L17.0694 6.91102C17.0159 7.09074 16.7614 7.09075 16.7079 6.91102L16.4112 5.91445C16.1381 4.99687 15.4203 4.2791 14.5028 4.00596L13.5062 3.7093C13.3265 3.6558 13.3265 3.40127 13.5062 3.34778L14.5027 3.05113C15.4203 2.778 16.1381 2.06023 16.4112 1.14264L16.7079 0.146083Z" fill="url(#paint2_linear_3758_21580)"/>
<defs>
<linearGradient id="paint0_linear_3758_21580" x1="-0.433594" y1="11.0278" x2="18.1621" y2="20.7337" gradientUnits="userSpaceOnUse">
<stop offset="0.25" stop-color="#EF0044"/>
<stop offset="0.70569" stop-color="#7692E1"/>
</linearGradient>
<linearGradient id="paint1_linear_3758_21580" x1="22.1964" y1="21.2056" x2="14.8071" y2="13.0471" gradientUnits="userSpaceOnUse">
<stop stop-color="#EF0044"/>
<stop offset="0.9" stop-color="#7692E1"/>
</linearGradient>
<linearGradient id="paint2_linear_3758_21580" x1="20.1134" y1="-1.33934" x2="13.7972" y2="9.17828" gradientUnits="userSpaceOnUse">
<stop stop-color="#EF0044"/>
<stop offset="0.9" stop-color="#7692E1"/>
</linearGradient>
</defs>
</svg>
