<svg width="24" height="25" viewBox="0 0 24 25" fill="none" xmlns="http://www.w3.org/2000/svg">
<path d="M7.07659 5.04514C7.21033 4.59582 7.84666 4.59583 7.98041 5.04514L8.48123 6.72763C9.02631 8.55882 10.4587 9.99124 12.2899 10.5363L13.9724 11.0371C14.4217 11.1709 14.4217 11.8072 13.9724 11.941L12.2899 12.4418C10.4587 12.9869 9.02632 14.4193 8.48123 16.2505L7.98041 17.933C7.84666 18.3823 7.21033 18.3823 7.07659 17.933L6.57575 16.2505C6.03066 14.4193 4.59826 12.9869 2.7671 12.4418L1.08455 11.941C0.635238 11.8072 0.635241 11.1709 1.08456 11.0371L2.76706 10.5363C4.59825 9.99124 6.03066 8.55882 6.57575 6.72764L7.07659 5.04514Z" fill="#A1A9C3"/>
<path d="M18.232 15.0266C18.3658 14.5773 19.0021 14.5773 19.1359 15.0266L19.2801 15.511C19.6211 16.6568 20.5174 17.5531 21.6631 17.8941L22.1476 18.0383C22.5969 18.1721 22.5969 18.8084 22.1476 18.9421L21.6631 19.0864C20.5174 19.4274 19.6211 20.3237 19.2801 21.4694L19.1359 21.9539C19.0021 22.4032 18.3658 22.4032 18.232 21.9539L18.0878 21.4694C17.7468 20.3237 16.8505 19.4274 15.7048 19.0864L15.2203 18.9421C14.771 18.8084 14.771 18.1721 15.2203 18.0383L15.7048 17.8941C16.8505 17.5531 17.7468 16.6568 18.0878 15.511L18.232 15.0266Z" fill="#A1A9C3"/>
<path d="M16.8887 0L17.3661 1.60381C17.6392 2.52141 18.357 3.23918 19.2746 3.51232L20.8784 3.98972L19.2745 4.46714C18.357 4.74028 17.6392 5.45805 17.3661 6.37564L16.8887 7.97947L16.4112 6.37563C16.1381 5.45805 15.4203 4.74028 14.5028 4.46714L12.8989 3.98972L14.5027 3.51231C15.4203 3.23918 16.1381 2.52141 16.4112 1.60382L16.8887 0Z" fill="#A1A9C3"/>
</svg>
